<?xml version="1.0" encoding="UTF-8"?>
<!DOCTYPE svg PUBLIC "-//W3C//DTD SVG 1.1//EN" "http://www.w3.org/Graphics/SVG/1.1/DTD/svg11.dtd">
<!-- Creator: CorelDRAW 2020 (64-Bit) -->
<svg xmlns="http://www.w3.org/2000/svg" xml:space="preserve" width="20.271mm" height="22.374mm" version="1.1" style="shape-rendering:geometricPrecision; text-rendering:geometricPrecision; image-rendering:optimizeQuality; fill-rule:evenodd; clip-rule:evenodd"
viewBox="0 0 3327.83 3673.07"
 xmlns:xlink="http://www.w3.org/1999/xlink"
 xmlns:xodm="http://www.corel.com/coreldraw/odm/2003">
 <defs>
  <style type="text/css">
   <![CDATA[
    .fil2 {fill:#16BAF9}
    .fil0 {fill:#C692DB}
    .fil1 {fill:#FF7DA8}
    .fil3 {fill:#FFC04C}
   ]]>
  </style>
 </defs>
 <g id="Capa_x0020_1">
  <metadata id="CorelCorpID_0Corel-Layer"/>
  <g id="_2149045058288">
   <path class="fil0" d="M1576.58 1063.39l0 0c0,159.64 -130.61,290.25 -290.25,290.25l-996.08 0c-159.64,0 -290.25,-130.61 -290.25,-290.25l0 0c0,-159.65 130.61,-290.25 290.25,-290.25l996.08 0c159.64,0 290.25,130.59 290.25,290.25z"/>
   <path class="fil1" d="M2585.89 290.25l0 0c0,159.65 -130.61,290.25 -290.25,290.25l-2005.4 0c-159.64,0 -290.25,-130.59 -290.25,-290.25l0 0c0,-159.64 130.61,-290.25 290.25,-290.25l2005.4 0c159.64,0 290.25,130.61 290.25,290.25z"/>
   <path class="fil1" d="M1576.58 2609.66l0 0c0,159.67 -130.61,290.26 -290.25,290.26l-996.08 0c-159.64,0 -290.25,-130.59 -290.25,-290.26l0 0c0,-159.62 130.61,-290.23 290.25,-290.23l996.08 0c159.64,0 290.25,130.61 290.25,290.23z"/>
   <g>
    <path class="fil2" d="M741.94 1836.54l0 0c0,159.64 130.61,290.25 290.26,290.25l1263.43 0c159.65,0 290.25,-130.61 290.25,-290.25l0 0c0,-159.64 -130.59,-290.25 -290.25,-290.25l-1263.43 0c-159.65,0 -290.26,130.61 -290.26,290.25z"/>
    <path class="fil3" d="M0.02 1836.54l0 0c0,159.64 130.61,290.25 290.25,290.25l22.23 0c159.65,0 290.25,-130.61 290.25,-290.25l0 0c0,-159.64 -130.59,-290.25 -290.25,-290.25l-22.23 0c-159.64,0 -290.25,130.61 -290.25,290.25z"/>
   </g>
   <g>
    <path class="fil3" d="M2585.89 3382.82l0 0c0,159.65 -130.61,290.25 -290.25,290.25l-2005.4 0c-159.64,0 -290.25,-130.59 -290.25,-290.25l0 0c0,-159.64 130.61,-290.25 290.25,-290.25l2005.4 0c159.64,0 290.25,130.61 290.25,290.25z"/>
    <path class="fil0" d="M3327.83 3382.82l0 0c0,159.65 -130.61,290.25 -290.25,290.25l-22.23 0c-159.65,0 -290.25,-130.59 -290.25,-290.25l0 0c0,-159.64 130.59,-290.25 290.25,-290.25l22.23 0c159.64,0 290.25,130.61 290.25,290.25z"/>
   </g>
  </g>
 </g>
</svg>
